<?xml version="1.0" encoding="UTF-8"?>
<svg width="185px" height="60px" viewBox="0 0 185 60" version="1.1" xmlns="http://www.w3.org/2000/svg" xmlns:xlink="http://www.w3.org/1999/xlink">
    <title>logo备份</title>
    <defs>
        <linearGradient x1="50%" y1="0%" x2="50%" y2="100%" id="linearGradient-1">
            <stop stop-color="#FFFFFF" stop-opacity="0.667422421" offset="0%"></stop>
            <stop stop-color="#FFFFFF" offset="100%"></stop>
        </linearGradient>
        <path d="M89.6068865,23.5089404 L89.6068865,20.4462612 L91.835077,20.4462612 C91.1671143,20.9060028 90.4953308,21.2136297 90.0503221,21.5200212 C90.7526718,21.9025472 91.4233315,22.311481 92.0580309,22.7465137 C92.2836818,23.0547583 92.5068605,23.207954 92.7289153,23.5137278 L89.6068865,23.5089404 Z M80.2408001,26.5811944 L95.8509442,26.5811944 L95.8509442,23.5510095 L93.729699,23.7400863 C94.3096496,23.1726652 94.6939543,22.6039099 95.0792294,22.2257562 L94.3096496,21.6568103 L93.3452002,20.711998 C93.3452002,20.5206339 93.1526597,20.3315571 92.7652496,19.9541659 L94.9039632,19.9541659 L94.9039632,16.9237903 L93.1701281,17.1130578 L89.6884833,17.1130578 L89.6884833,14.2732839 L93.3512171,14.2732839 L95.6651969,14.4623607 L95.6651969,11.2438614 L93.1586766,11.434463 L82.940055,11.434463 L80.6260752,11.2438614 L80.6260752,14.4623607 L82.940055,14.2732839 L86.4102483,14.2732839 L86.4102483,17.1130578 L83.7117698,17.1130578 L81.39779,16.9237903 L81.39779,19.9541659 L86.4102483,19.9541659 L86.4102483,23.7334152 L82.7473204,23.7334152 L80.2408001,23.5451008 L80.2408001,26.5811944 Z M75.5577569,9.80379259 L75.5577569,32.51888 L78.8753725,32.51888 L78.8753725,32.124186 L95.4603075,32.124186 L95.4603075,32.7161276 L98.972973,32.7161276 L98.7779231,29.35755 L98.7779231,9.80379259 L98.972973,6.64266145 L75.5577569,6.64266145 L75.5577569,9.80379259 Z M78.6797857,28.1149277 L95.8509442,28.1149277 L95.8509442,9.71012806 L78.6797857,9.71012806 L78.6797857,28.1149277 Z M109.766137,25.7502229 C111.728355,24.5883292 113.304819,23.619792 114.484644,22.6512549 C114.484644,22.4578983 114.288303,22.2645417 114.288303,22.0711851 C112.714214,23.033485 111.337258,23.8078859 110.156641,24.3947777 C108.976817,25.1683989 107.206189,25.7502229 104.846738,26.5252085 L104.25831,25.3633148 C104.06197,25.1683989 103.666914,24.3947777 103.078486,23.619792 C104.25831,23.4264354 105.241794,23.2328839 106.026563,22.8446115 C107.048642,22.560619 108.03747,22.1715668 108.976817,21.6827177 C110.19682,21.1131734 111.378822,20.467612 112.515499,19.7503214 L112.121036,19.5569648 C110.744871,20.1364498 109.761585,20.3298064 108.976817,20.7188586 C108.386014,20.9114355 107.206189,21.104987 105.437343,21.6850567 C105.437343,21.2983436 105.241794,20.9114355 105.043079,20.523163 C104.844363,20.1341108 104.453859,19.5569648 103.863254,18.5907667 C105.031401,18.3319184 106.212809,18.1377821 107.402728,18.008358 C108.976817,17.8150014 110.94141,17.0398208 113.300861,15.8779271 L106.813508,15.8779271 L106.813508,12.7775947 L123.329271,12.7775947 L123.329271,15.8742237 L116.643994,15.8742237 C117.036081,16.0691396 117.431138,16.4558528 117.823027,16.6492093 L114.875148,18.3927321 C115.856257,18.9729968 116.251313,19.3589303 116.447654,19.7481773 L117.036081,20.520824 C119.199192,18.9729968 120.379017,18.0044596 120.773281,17.6177465 L122.149446,16.2624962 C122.345985,16.6492093 122.738666,16.8425659 122.934215,17.2310333 C123.13293,17.4243899 123.917699,18.0044596 124.897224,18.7796402 C123.7174,19.5546259 122.537575,20.3274674 121.554289,21.102648 C121.750629,21.6827177 122.144894,22.4578983 122.537575,23.619792 C122.930454,24.7816857 123.7174,25.7502229 124.897224,26.9119217 C126.019057,27.8636961 127.277853,28.6464784 128.632247,29.2349295 C128.239566,29.8151941 127.845301,30.2034666 127.648961,30.5903747 C127.256082,30.9770879 126.864192,31.5587169 126.272598,32.3315585 C124.861796,31.4331911 123.546591,30.3954588 122.348162,29.2349295 C121.561216,28.4599438 120.971997,27.4914067 120.385152,26.5252085 C119.993263,25.3633148 119.401866,24.2014211 119.009779,22.6596363 L118.026295,23.242045 L118.026295,24.5883292 C118.222042,24.9750423 118.222042,25.7502229 118.222042,26.9119217 C118.222042,28.0738154 118.026295,29.0423526 118.026295,29.8151941 C117.828371,30.5568492 117.41946,31.2275548 116.846668,31.7475904 C116.257449,32.3278551 114.883659,32.522771 112.718767,32.7161276 C112.522426,31.3608773 112.325294,30.5856967 112.12737,30.3931198 L111.538942,29.0378695 C113.110656,29.2312261 113.898591,29.2312261 114.290481,29.0378695 C114.68336,28.8445129 114.882075,28.2626889 114.882075,27.8759758 C115.018841,27.437415 115.085343,26.9797524 115.077624,26.5207255 L115.077624,26.1322581 C114.09414,26.7140821 112.718767,27.4877033 111.342602,28.2626889 C109.768513,29.2312261 108.588688,29.8107111 107.417374,30.1950852 L103.878692,31.5503355 C103.592692,30.886452 103.264732,30.2408905 102.897583,29.6171596 L102.095002,28.4539014 C104.776277,27.9399082 107.362549,27.0284814 109.766137,25.7502229 Z M103.656016,14.1330763 L103.656016,7.81758989 L106.828808,7.99711346 L114.163407,7.99711346 C113.965244,7.63515906 113.368961,7.09422621 112.775871,6.73445226 C113.131286,6.59381336 113.464151,6.41138253 113.767282,6.19133896 C114.163407,6.0118154 114.758891,5.65131463 115.745711,5.10892815 C116.935284,6.19133896 117.926893,6.91034175 118.523176,7.45490868 C118.223838,7.58973306 117.955031,7.77343582 117.728931,7.99711346 L125.659812,7.99711346 L128.632247,7.81758989 L128.632247,14.311328 L125.061135,14.311328 L125.259098,12.6879843 L125.259098,10.8858439 L107.23092,10.8858439 L107.23092,14.1352568 L103.656016,14.1330763 Z M136.437319,15.8450613 L141.120362,15.8450613 L141.120362,12.7775947 L136.437319,12.7775947 L136.437319,15.8450613 Z M131.754275,11.5141478 L131.754275,25.7134843 L135.125692,25.7134843 L135.125692,25.1291801 L140.47864,25.1291801 L140.47864,29.4086602 C140.47864,29.9915938 140.47864,30.575898 140.676653,30.9645856 C140.881653,31.4409972 141.227178,31.8473079 141.668317,32.1318234 C142.43482,32.3871627 143.238052,32.5187487 144.04807,32.5195319 C145.439154,32.4958386 146.830238,32.5616316 148.212738,32.7161276 L152.171408,32.7161276 C153.163072,32.5195319 153.757311,32.5195319 154.151142,32.3260693 C154.594676,32.0621142 154.996292,31.7339326 155.340221,31.3530774 C155.738643,30.9645856 156.134669,29.7973479 156.730506,27.8537139 C155.738643,27.4628724 154.75137,26.8807221 153.358889,26.102172 L153.160876,27.2694097 C153.160876,28.0479598 152.961266,28.4358642 152.56504,28.824356 C152.11911,29.0554147 151.655216,29.2512271 151.17715,29.4086602 L148.410751,29.4086602 L145.237148,29.2151976 C144.643907,29.2151976 144.245485,29.2151976 144.04807,29.0209517 C144.04807,28.824356 143.850057,28.4358642 143.850057,28.2422057 L143.850057,25.1291801 L150.007633,25.1291801 L150.007633,25.7134843 L153.37905,25.7134843 L153.37905,8.99227978 L143.850057,8.99227978 L143.850057,5.10892815 L140.47864,5.10892815 L140.47864,8.99227978 L131.754275,8.99227978 L131.754275,11.5141478 Z M136.437319,21.9799945 L141.120362,21.9799945 L141.120362,18.9125279 L136.437319,18.9125279 L136.437319,21.9799945 Z M144.242391,15.8450613 L150.486448,15.8450613 L150.486448,12.7775947 L144.242391,12.7775947 L144.242391,15.8450613 Z M144.242391,21.9799945 L150.486448,21.9799945 L150.486448,18.9125279 L144.242391,18.9125279 L144.242391,21.9799945 Z M162.97883,14.311328 L163.870165,15.3119346 C164.092044,15.7138688 164.763296,16.7120591 166.096592,18.5133122 C165.649241,19.7136777 165.203461,20.7142844 164.757906,21.3127555 C164.312351,22.1136034 163.641998,22.7130813 162.974564,23.5137278 L162.97883,14.311328 Z M163.693246,30.4237755 L163.491724,26.8661477 L163.491724,23.3085199 C164.298017,24.058278 164.702687,24.6208323 165.105936,24.8078477 C165.262156,25.1437966 165.465304,25.4582539 165.709691,25.7446212 C166.719132,24.4323088 167.326137,23.4970434 167.72451,23.1215045 C167.888857,22.6707447 168.090379,22.232616 168.328468,21.8107003 L168.733951,22.5602699 C168.733951,22.7474738 168.935474,23.1215045 168.935474,23.6840588 L169.743392,23.1215045 C170.145625,22.7474738 170.750396,22.3732546 171.96136,21.8107003 C171.155066,20.3136349 170.347148,19.189846 169.743392,17.8788533 L169.944915,16.9422683 C170.145625,16.567295 170.347148,15.8177254 170.54867,14.6946906 C171.558111,15.8184794 171.96136,16.5644671 172.36603,16.7552529 C172.567552,17.1292837 172.970598,17.8788533 173.375471,18.8133645 L172.970598,20.126431 C172.769075,20.8739268 172.36603,21.623685 171.759634,22.5602699 C171.155066,23.3085199 170.54867,24.2452934 169.539432,24.9950515 C170.54867,25.5553435 171.155066,25.9316365 171.356589,26.3058557 C171.739929,26.495699 172.081826,26.7498287 172.36603,27.0554254 C172.850131,26.6157885 173.257848,26.1099798 173.576994,25.5553435 C173.980039,24.9950515 174.586435,24.058278 175.591,22.3732546 L176.399528,23.8712627 C176.399528,24.058278 176.600442,24.4323088 177.005925,25.1820669 C177.775651,24.3337109 178.6565,23.5788627 179.628562,22.9344892 L179.022166,21.9977157 C179.022166,21.8107003 178.418411,20.6869115 177.008159,18.4400879 L177.410595,16.7552529 C177.657419,15.8987905 177.793122,15.0180085 177.81364,14.1319478 L178.219123,12.447867 L178.219123,11.5110935 C177.209885,11.5110935 175.998921,11.3240781 174.787957,11.1370628 L174.787957,11.8845586 C174.787957,12.447867 174.586435,13.3846405 174.382474,14.6946906 C173.980039,14.1319478 173.576994,13.3846405 173.172323,13.0083475 L172.567552,13.3846405 C172.164507,13.7579171 171.558111,14.1319478 170.553546,14.5084293 L170.958216,13.0083475 C170.989907,12.7519555 171.057352,12.5008421 171.159739,12.2608516 C171.128047,11.8764521 171.197118,11.4912985 171.361261,11.1370628 C170.123482,11.1664724 168.890172,10.9771948 167.728573,10.5780905 L167.728573,11.7018793 C167.728573,12.2651877 167.728573,12.6386528 167.52705,13.0126835 C167.560367,13.5192463 167.492109,14.0282599 167.326137,14.5120113 C166.781092,13.805048 166.307351,13.0532161 165.911213,12.2651877 C165.105936,13.0126835 164.702687,13.2019612 164.298017,13.3882224 C164.103605,13.6195408 163.807618,13.7564089 163.491724,13.7624417 L163.491724,10.0234542 L179.635672,10.0234542 L179.635672,26.5024858 C179.635672,26.6895012 179.635672,27.0657942 179.43415,27.2528095 C179.43415,27.4390708 178.827754,27.4390708 178.223186,27.4390708 C177.610492,27.4699886 176.996377,27.4068332 176.406029,27.2528095 L176.809074,28.189583 C177.213745,29.1240942 177.415267,29.6866485 177.415267,30.0586054 C177.415267,30.6211597 177.61679,30.9953789 177.61679,31.1823943 C178.906372,31.0704113 180.187218,30.8833959 181.450594,30.6211597 C182.25831,30.2456208 182.86308,29.8715901 182.86308,29.4973708 C183.029662,28.9495214 183.097107,28.3796147 183.064603,27.8110277 L183.064603,10.0132739 L183.267751,6.64266145 L179.843492,6.8400456 L163.281466,6.8400456 L159.852535,6.65303025 L159.852535,30.4260378 L163.693246,30.4237755 Z M145.560218,36.0615111 C146.080765,36.083671 146.596802,36.1682584 147.096728,36.3127409 C147.543862,36.4235403 147.99218,36.5335641 148.44056,36.8118801 L148.628757,36.9399282 L149.011889,36.3127409 L150.290124,36.3127409 L151.698656,41.2190653 L150.034296,41.9738942 C149.266041,40.5898513 148.625635,39.5842992 147.985358,39.0801935 C147.217103,38.4511062 146.449363,38.0746414 145.553258,38.0746414 C144.529176,38.0746414 143.63204,38.576721 143.120643,39.5842992 C142.480237,40.5898513 142.224925,41.9738942 142.224925,43.7342752 C142.224925,45.4952894 142.480237,46.8792057 142.99318,47.8848844 C143.63204,48.7667211 144.400295,49.2688007 145.548619,49.2688007 C146.444852,49.2688007 147.085129,49.0175709 147.596139,48.5139718 C148.109212,48.1376337 148.364395,47.5084197 148.364395,46.7535908 C148.364395,46.2496118 148.236546,45.872134 147.981234,45.6219173 C147.725535,45.3695479 147.340956,45.243933 146.702999,45.243933 L146.702999,43.483552 L153.234651,43.483552 L153.234651,45.243933 C152.753413,45.3206695 152.307358,45.5402423 151.956932,45.873147 C151.829083,46.1243768 151.701234,46.6279759 151.701234,47.3828048 L151.701234,51.2820576 L149.524833,51.2820576 L149.011889,50.1492444 C148.371483,50.6528436 147.734041,50.9040733 146.964368,51.1564427 C146.269059,51.413624 145.531091,51.5412649 144.787967,51.5332873 C142.866878,51.5332873 141.330367,50.7784585 140.051102,49.3945422 C138.898267,47.8848844 138.386742,45.9987619 138.386742,43.6091669 C138.386742,41.4702951 139.025601,39.5842992 140.306413,38.2002563 C141.714946,36.8162134 143.379306,36.0615111 145.560218,36.0615111 Z M81.1573267,36.0615111 C81.7216935,36.0831645 82.2810338,36.1672454 82.8258108,36.3127409 C83.3387543,36.5649836 83.9791603,36.8162134 84.4901706,37.1941977 L84.4870775,37.1916651 L84.7443225,36.3097018 L86.0220416,36.3097018 L87.2998895,40.7125537 L85.7638944,41.2165328 C85.2674476,40.3544501 84.6169888,39.5877181 83.8442227,38.9521727 C83.1324169,38.4594636 82.2825804,38.1958243 81.4116075,38.1973439 C80.7706859,38.1973439 80.2587735,38.3229587 79.8756124,38.5741885 C79.4754391,38.8156679 79.2322421,39.2454429 79.2352063,39.7070016 C79.2352063,40.4618305 80.5129254,41.0909179 82.8187224,41.7186124 C83.2038166,41.7186124 83.4591284,41.8457468 83.5869777,41.8457468 C85.3802178,42.3478264 86.5320208,42.8514255 87.1724269,43.4805129 C87.8465996,44.2482579 88.211073,45.233043 88.1959941,46.2470792 C88.1959941,47.8818453 87.6839527,49.1402734 86.6594834,50.0207171 C85.7638944,51.0282953 84.355233,51.40476 82.8258108,51.40476 C82.058071,51.40476 81.4186959,51.40476 80.7782898,51.1534037 C80.0834963,51.0594458 79.4215672,50.801758 78.850112,50.4016138 L78.5949291,51.2820576 L77.3166945,51.2820576 L75.6527213,45.873147 L77.1887164,45.243933 C77.8291225,46.6279759 78.5973778,47.633528 79.6213316,48.262742 C80.5170495,49.0175709 81.4145718,49.3945422 82.4381389,49.3945422 C83.1313859,49.4003671 83.8064608,49.1807943 84.3592283,48.7707732 C84.7871108,48.4962439 85.0318544,48.0164508 84.9996344,47.5153842 C84.9996344,46.6349404 83.9760672,46.0057264 81.9271286,45.5021273 C81.7267198,45.4110818 81.5072367,45.368155 81.2867225,45.3765124 C80.4576357,45.1787196 79.643499,44.9239443 78.850112,44.614719 C78.3391018,44.3634892 77.8266738,44.2383809 77.6986957,44.112766 C77.1091973,43.7679582 76.6581163,43.2352347 76.4204611,42.6031082 C76.1592208,42.0515171 76.0282784,41.4495281 76.0374289,40.8412077 C76.0126839,39.5674577 76.521761,38.3398002 77.4445438,37.4454274 C78.4553518,36.5328202 79.7850096,36.0371986 81.1573267,36.0615111 Z M171.286009,39.205935 L171.286009,40.7154662 C170.773453,40.7154662 170.390291,40.8412077 170.133046,41.0934505 C170.005197,41.3446802 169.877348,41.9738942 169.877348,42.854338 L169.877348,47.5153842 C169.877348,48.3953215 170.005197,49.0245355 170.133046,49.2757652 C170.390291,49.5285145 170.773453,49.6536229 171.286009,49.6536229 L171.286009,51.1564427 L165.910757,51.1559282 L165.911702,51.1603682 L162.198919,51.1603682 L158.485492,45.9987619 L157.334204,45.9987619 L157.334204,47.5084197 C157.334204,48.3883569 157.462053,49.0175709 157.717236,49.2688007 C157.832255,49.493129 158.147779,49.6173057 158.576732,49.642131 L158.742737,49.6467849 L158.742737,51.1564427 L152.980371,51.1564427 L152.980371,49.6536229 C153.493443,49.6536229 153.876604,49.5285145 154.133849,49.2757652 C154.250572,49.0454713 154.367727,48.4975656 154.386443,47.7300715 L154.389032,47.5153842 L154.389032,42.854338 C154.389032,41.9738942 154.261183,41.3446802 154.133849,41.0934505 C153.90876,40.872738 153.587266,40.7488781 153.166691,40.7213618 L152.980371,40.7154662 L152.983464,39.210367 L159.641419,39.210367 C161.177929,39.21138 162.329732,39.4626098 163.097472,39.9651959 C163.990613,40.5898513 164.37532,41.3446802 164.37532,42.4759738 C164.379315,43.1961067 164.155322,43.8995246 163.734914,44.4891041 C163.228787,44.9762557 162.614006,45.3391431 161.940898,45.5500187 L161.685847,45.6219173 L163.990613,48.6397133 C164.247342,49.0175709 164.503169,49.2688007 164.887748,49.3945422 C165.142312,49.5211701 165.417168,49.6015231 165.699116,49.6326837 L165.722757,49.6339282 L165.87952,49.6163748 C166.233878,49.5652284 166.457228,49.4495099 166.549144,49.2688007 C166.804842,49.0175709 166.804842,48.3883569 166.804842,47.5084197 L166.804842,42.854338 C166.804842,41.9738942 166.804842,41.3446802 166.549144,41.0934505 C166.421295,40.8407012 166.037102,40.7145798 165.396181,40.7154662 L165.399274,39.205935 L171.286009,39.205935 Z M98.5713717,39.205935 L99.8490907,42.854338 L98.6976744,43.3579371 C98.3130956,42.3508655 97.8015698,41.7216515 97.289013,41.3446802 C96.776585,40.9683421 96.2655747,40.8412077 95.4973194,40.8412077 L95.2400744,40.8412077 L95.2400744,47.5153842 C95.2400744,48.3953215 95.3679236,49.0245355 95.6251686,49.2757652 C95.7525023,49.5285145 96.1361789,49.6536229 96.6487358,49.6536229 L96.6487358,51.1564427 L90.889334,51.1564427 L90.889334,49.6467849 C91.4008599,49.6467849 91.7854386,49.5211701 92.0412659,49.2688007 C92.1691152,49.0175709 92.2979954,48.3883569 92.2979954,47.5084197 L92.2979954,40.8412077 L92.1691152,40.8412077 C91.4008599,40.8412077 90.7620003,40.9683421 90.248928,41.3446802 C89.7365,41.7216515 89.2254897,42.3508655 88.840911,43.3579371 L87.6889791,42.854338 L88.9682447,39.205935 L98.5713717,39.205935 Z M177.434501,39.205935 C179.609355,39.205935 181.273715,39.7094076 182.426549,40.7154662 C183.579383,41.7216515 184.090909,43.2308027 184.090909,45.1183181 C184.090909,47.136007 183.579383,48.6397133 182.426549,49.6467849 C181.339587,50.5974298 179.794633,51.0989896 177.792554,51.1517844 L177.434501,51.1564427 L171.799984,51.1564427 L171.799984,49.6536229 C172.312412,49.6536229 172.697635,49.5285145 172.825484,49.2757652 C173.061038,49.0438608 173.079157,48.489887 173.080551,47.713938 L173.079923,42.4532037 C173.075459,41.7095443 173.044213,41.3087902 172.825484,41.0934505 C172.711841,40.8692347 172.39484,40.7449705 171.965903,40.7201243 L171.799984,40.7154662 L171.799984,39.205935 L177.434501,39.205935 Z M119.438377,39.205935 L120.84691,42.854338 L119.695107,43.3579371 C119.310399,42.3508655 118.799517,41.7216515 118.286445,41.3446802 C117.774017,40.9683421 117.133611,40.8412077 116.365356,40.8412077 L116.238022,40.8412077 L116.238022,47.5153842 C116.238022,48.3953215 116.365356,49.0245355 116.494752,49.2757652 C116.75045,49.5285145 117.005762,49.6536229 117.646039,49.6536229 L117.646039,51.1564427 L111.885735,51.1564427 L111.885735,49.6467849 C112.396745,49.6467849 112.78184,49.5211701 112.909302,49.2688007 C113.165001,49.0175709 113.29285,48.3883569 113.29285,47.5084197 L113.29285,40.8412077 L113.037152,40.8412077 C112.268896,40.8412077 111.62849,40.9683421 111.11748,41.3446802 C110.540612,41.9367922 110.064786,42.6164042 109.708818,43.3579371 L108.68538,42.854338 L109.964646,39.205935 L119.438377,39.205935 Z M105.872697,39.205935 L109.073052,48.0120188 L109.073052,48.1376337 C109.430669,48.9589084 109.900892,49.5617754 110.482673,49.6385076 L110.609047,49.6467849 L110.609047,51.1564427 L104.976592,51.1564427 L104.976592,49.6512169 L105.246165,49.6509716 C105.57831,49.6492542 105.887132,49.6355151 105.999,49.525602 C106.13035,49.4241942 106.217309,49.2788183 106.244958,49.1192262 L106.254312,49.0220029 L106.254312,48.7707732 C106.244452,48.6976456 106.216252,48.6284355 106.172591,48.5693933 L106.123885,48.5139718 L105.483479,46.8792057 L102.027425,46.8792057 L101.514868,48.5139718 L101.514868,48.8919561 C101.514868,49.1431858 101.514868,49.3945422 101.771727,49.5211701 C101.88537,49.6328277 102.201048,49.6452341 102.62978,49.6466126 L102.79568,49.6467849 L102.79568,51.1564427 L97.9309656,51.1564427 L97.9309656,49.6467849 C98.6992209,49.5211701 99.3380805,48.8919561 99.7226592,47.8848844 C99.7774655,47.8358794 99.8169029,47.7732698 99.8370022,47.7043209 L99.8505084,47.633528 L103.178842,39.205935 L105.872697,39.205935 Z M130.064942,39.205935 L131.600937,42.854338 L130.57737,43.3579371 C130.028727,42.5665128 129.333933,41.8838618 128.528432,41.3446802 C127.760176,40.8412077 126.991921,40.7154662 126.096332,40.7154662 C125.583775,40.7154662 125.328077,40.7154662 125.070832,40.9683421 C124.943498,41.0934505 124.81552,41.5960366 124.81552,42.2237311 L124.81552,43.8598901 L125.328077,43.8598901 C125.968483,43.8598901 126.351515,43.7342752 126.605796,43.483552 C126.735192,43.3579371 126.863041,42.854338 126.99089,42.0995091 L128.142306,42.0995091 L128.142306,47.3828048 L126.99089,47.3828048 C126.863041,46.7535908 126.735192,46.2499916 126.477946,45.873147 C126.178815,45.5599962 125.763563,45.3785385 125.32653,45.3695479 L124.814102,45.3695479 L124.814102,48.1376337 C124.814102,48.8919561 124.941951,49.2688007 125.069801,49.3930226 C125.32653,49.6452654 125.582357,49.6452654 126.094785,49.6452654 C127.042829,49.6309565 127.970122,49.3702296 128.782712,48.890943 C129.665156,48.1984151 130.404284,47.3457028 130.9595,46.3796586 L131.983067,47.0073531 L130.320125,51.1564427 L120.463362,51.1564427 L120.463362,49.6467849 C120.974372,49.6467849 121.359466,49.5211701 121.614649,49.2688007 C121.742627,49.0175709 121.870477,48.3883569 121.870477,47.5084197 L121.870477,42.854338 C121.870477,41.9738942 121.742627,41.3446802 121.614649,41.0934505 C121.359466,40.8412077 120.974372,40.7154662 120.463362,40.7154662 L120.463362,39.205935 L130.064942,39.205935 Z M177.434501,40.7169857 C176.921428,40.7169857 176.53685,40.7169857 176.409,40.9692285 C176.173328,41.0838949 176.155199,41.4138138 176.153805,42.0575854 L176.153688,42.225124 L176.153688,48.1400396 C176.153688,48.893349 176.153688,49.2703202 176.409,49.3959351 C176.53685,49.6481779 176.921428,49.6481779 177.434501,49.6481779 C178.417728,49.6735034 179.358554,49.2565178 179.989939,48.5154913 C180.630345,47.6311221 181.013893,46.6294954 181.013893,45.1198377 C181.013893,43.7357948 180.630345,42.7302426 179.989939,41.8496723 C179.358554,41.1087724 178.417728,40.6917868 177.434501,40.7169857 Z M103.819119,41.9738942 L102.667831,45.3695479 L104.976592,45.3695479 L103.819119,41.9738942 Z M158.742737,40.7169857 C158.229793,40.7169857 157.846632,40.8426006 157.717236,40.9692285 C157.490407,41.1913057 157.364187,41.5138348 157.338939,42.0245944 L157.334204,42.225124 L157.334204,44.3634892 L157.974481,44.3634892 C159.128991,44.3634892 159.894153,44.2383809 160.40671,43.9856316 C161.046987,43.6091669 161.302814,43.1051878 161.302814,42.4759738 C161.312352,41.9476822 161.013865,41.4599116 160.534559,41.2205849 C160.151398,40.8426006 159.510992,40.7169857 158.742737,40.7169857 Z" id="path-2"></path>
        <linearGradient x1="50%" y1="0%" x2="50%" y2="100%" id="linearGradient-3">
            <stop stop-color="#FFFFFF" stop-opacity="0.667422421" offset="0%"></stop>
            <stop stop-color="#FFFFFF" offset="100%"></stop>
        </linearGradient>
        <path d="M54.6663729,19.9998631 L54.2828252,19.2455408 L56.9711388,16.9810541 C57.2278683,16.7288113 57.3557176,16.6030698 57.3557176,16.3518401 L57.8667279,16.1006103 L58.507134,17.8684624 L57.9945771,18.1196921 L57.9945771,17.9940773 C57.9945771,17.8684624 57.8667279,17.8684624 57.8667279,17.7427209 L57.6115449,17.7427209 C57.6120604,17.7764039 57.5989147,17.8085674 57.5746852,17.8322468 C57.5505846,17.8560529 57.5173334,17.8688423 57.4835668,17.8684624 L56.9711388,18.2448005 L57.3557176,19.3779935 L57.9945771,19.3779935 L58.1239729,19.2523787 C58.2518221,19.2523787 58.3792847,19.2523787 58.3792847,19.1267638 C58.3792847,19.0011489 58.3792847,18.9996294 58.2518221,18.7489062 L58.7628324,18.6231647 L59.4062027,20.125478 L58.8948058,20.2510929 C58.7659255,19.9998631 58.5100982,19.8746281 57.9976702,19.9998631 L54.6663729,19.9998631 Z M55.4346282,19.3706491 L56.8502491,19.3706491 L56.4667014,18.6163267 L55.4346282,19.3706491 Z M56.7123472,24.7795597 L56.7123472,24.403095 C56.8401965,24.2759606 57.0960238,24.2759606 57.3527533,24.1503457 L59.0171132,23.6482661 C59.4002743,23.6482661 59.5281235,23.5211317 59.6575193,23.6482661 C59.7943901,23.6576365 59.9031651,23.7645105 59.9127022,23.8994958 L60.4257746,23.7738809 L60.0405515,22.3899647 L59.5281235,22.5155795 L59.5281235,22.8905247 C59.3689564,23.0709695 59.1309145,23.1645475 58.889264,23.1417545 L56.8502491,23.6482661 L59.6670564,21.1369816 L59.5381762,20.3821528 L56.5945507,21.1369816 C56.3478738,21.2220756 56.0880512,21.2646226 55.8262954,21.2625965 C55.7568289,21.1948506 55.7119786,21.1068442 55.6984461,21.0113668 L55.05804,21.1369816 L55.5695658,22.5210245 L55.9541446,22.3954097 C55.9541446,22.1440533 55.9541446,22.0174254 56.0819938,22.0174254 C56.0819938,21.8918105 56.3378212,21.7661957 56.7223999,21.7661957 L57.8738163,21.3897309 L55.6984461,23.4014683 L56.2099719,24.9106196 L56.7123472,24.7795597 Z M3.84076107,31.6980014 C3.9686103,31.8232364 3.84076107,31.9488513 3.84076107,32.0759857 C3.71291184,32.0759857 3.45760001,32.2016006 3.20035498,32.2016006 L1.4086614,32.3272154 C1.15283406,32.4523238 0.896104551,32.4523238 0.768255318,32.3272154 C0.640406086,32.3272154 0.640406086,32.2016006 0.640406086,32.0759857 L0.127849233,32.0759857 L0.512556853,35.3460245 L2.04893861,35.7254016 L2.17691672,35.3489369 C1.79169358,35.223322 1.53651064,34.9705728 1.28081217,34.7198495 C1.06480883,34.4987572 0.889531657,34.2424624 0.763744509,33.9619816 C0.763744509,33.7112583 0.763744509,33.5856435 0.891593741,33.5856435 C0.891593741,33.4585091 1.14883877,33.4585091 1.276688,33.4585091 L2.30025514,33.3328942 L2.42810438,33.4585091 C2.42810438,33.5856435 2.30025514,33.7112583 2.30025514,33.8363667 C2.12497797,33.9941451 1.89750429,34.0831645 1.65984906,34.0875964 L1.78769829,34.4655807 L3.70878767,34.2133379 L3.70878767,33.8363667 L3.07250575,33.8363667 C3.07250575,33.7112583 2.94517204,33.5856435 2.94517204,33.4585091 L2.94517204,33.2141172 L3.58544925,33.2141172 C3.71291184,33.0890089 3.9686103,33.0890089 3.9686103,33.2141172 C4.09645953,33.2141172 4.09645953,33.3397321 4.09645953,33.5924814 C4.22585533,33.8433312 4.09645953,34.094561 3.9686103,34.3473103 C3.79436417,34.6282976 3.57900523,34.8820599 3.32820422,35.1006196 L3.58544925,35.4786039 L4.86316829,34.723775 L4.47962059,31.5793511 L3.84076107,31.6980014 Z M3.20035498,27.4203845 L3.07250575,27.7987486 C3.32820422,27.9239836 3.58544925,28.0495985 3.71291184,28.3023478 C3.84076107,28.4279626 3.84076107,28.6788125 3.84076107,28.9300422 L1.4086614,28.8044274 C1.02395378,28.8044274 0.896104551,28.8044274 0.768255318,28.6788125 C0.640406086,28.6788125 0.640406086,28.553071 0.640406086,28.4279626 L0.127849233,28.3023478 L0,30.3140851 L0.512556853,30.3140851 C0.505983959,30.1770738 0.551220935,30.0429748 0.640406086,29.9371139 C0.768255318,29.9371139 1.02395378,29.811499 1.4086614,29.811499 L3.84076107,29.9371139 L3.84076107,30.0627288 C3.84076107,30.3140851 3.71291184,30.4397 3.58544925,30.6919428 C3.45760001,30.8175577 3.20035498,30.9431725 2.81719393,31.068914 L2.94517204,31.4467717 L4.35318904,31.068914 L4.48116716,27.9239836 L3.20035498,27.4203845 Z M4.86471485,25.7856183 L4.73686562,26.6655556 L1.28081217,27.1696612 C0.896104551,27.1696612 0.640406086,27.2947696 0.640406086,27.5475189 L0,27.4203845 L0.38457874,25.5412265 L0.896104551,25.6668414 L0.896104551,26.0448256 C1.02395378,26.0448256 1.02395378,26.1704405 1.15283406,26.1704405 L1.28081217,26.1704405 L1.92108938,26.0448256 L2.17691672,24.9121391 L1.66435987,24.6607827 L1.53651064,24.6607827 C1.502744,24.6272263 1.45699151,24.6078523 1.4086614,24.6078523 C1.3603313,24.6078523 1.3139344,24.6272263 1.28081217,24.6607827 C1.15283406,24.6607827 1.15283406,24.7863976 1.15283406,24.9121391 L0.512556853,24.9121391 L0.896104551,23.2772463 L1.4086614,23.4024813 C1.4086614,23.6552306 1.53651064,23.9064604 1.92108938,24.1573102 L2.04893861,24.1573102 L4.86471485,25.7856183 Z M3.84076107,25.9112332 L2.68934469,25.1564043 L2.5599489,26.0378611 L3.84076107,25.9112332 Z M4.99359513,20.749247 L4.73982987,21.0059218 C4.9539,21.2260011 5.12750173,21.4817894 5.25238672,21.7607507 C5.26089282,21.977411 5.21707352,22.1930583 5.12453749,22.3899647 L2.81719393,21.6351358 C2.5599489,21.5093943 2.30476595,21.5093943 2.30476595,21.3837794 C2.20655918,21.282857 2.15977565,21.1444527 2.17691672,21.0059218 L1.66435987,20.7545654 L1.02395378,22.6411944 L1.53651064,22.7663028 L1.79169358,22.5155795 C2.0535783,22.513047 2.31327205,22.555594 2.5599489,22.6411944 L4.86471485,23.3955168 C4.73686562,23.6482661 4.60901639,23.8994958 4.35318904,24.0247308 C4.22585533,24.0247308 3.9686103,24.1503457 3.58544925,24.1503457 L3.58544925,24.6538182 L4.99359513,24.6538182 L6.14552702,21.6351358 L4.99359513,20.749247 Z M6.27182969,20.120033 L7.04008501,19.3652041 C7.15285525,19.0392639 7.15285525,18.6855922 7.04008501,18.3595254 C6.93633639,18.0345982 6.7062851,17.7629814 6.39967893,17.6046965 C6.19939898,17.5137777 5.98081803,17.4702177 5.76030388,17.4776887 L5.24929359,17.4776887 C5.24929359,17.6046965 5.09025533,17.6339475 4.99359513,17.730438 C4.89745044,17.8262953 4.73686562,18.1067761 4.48116716,18.2325176 C4.48258484,18.266074 4.46956793,18.298744 4.44533844,18.3229299 C4.42123783,18.3472425 4.38798672,18.3600319 4.35318904,18.3595254 C3.9686103,18.861605 3.71291184,18.9872199 3.45760001,18.861605 C3.31969812,18.852741 3.20989212,18.7453606 3.20035498,18.6103752 C3.07250575,18.3595254 3.20035498,18.2325176 3.20035498,17.9811612 C3.32820422,17.730438 3.58544925,17.6046965 3.84076107,17.4776887 C4.20922978,17.3347258 4.59844821,17.2501384 4.99359513,17.2263323 L4.99359513,16.8499942 L3.32820422,16.473023 L3.20035498,16.8513871 L3.45760001,16.977002 C3.2642796,17.07058 3.09054899,17.1982209 2.94517204,17.3534667 C2.78703594,17.4751561 2.69295334,17.6601595 2.68934469,17.8570659 C2.47488792,18.1957955 2.42758886,18.6113883 2.5599489,18.9887394 C2.65815567,19.3374726 2.94517204,19.6179534 3.32820422,19.8701962 C3.61715379,19.9651671 3.92131124,20.0077141 4.22585533,19.995811 C4.48116716,19.8701962 4.73686562,19.6179534 5.12144436,19.2409822 C5.15572651,19.2419952 5.1884621,19.2286993 5.21256271,19.2053997 C5.23679221,19.1817203 5.25032464,19.1490503 5.24929359,19.1153673 C5.76185045,18.6118948 6.01754891,18.3605384 6.27337626,18.4861533 C6.40070997,18.4861533 6.40070997,18.6118948 6.40070997,18.7375096 C6.5285592,18.8631245 6.40070997,18.9887394 6.40070997,19.2409822 C6.27337626,19.3667237 6.11678672,19.6485974 5.88969968,19.7435683 C5.60281219,19.8444907 5.29813922,19.8875442 4.99359513,19.8701962 L4.99359513,20.2471674 L6.27182969,20.6250251 L6.52714152,20.2471674 L6.27182969,20.1214259 L6.27182969,20.120033 Z M49.8001115,9.42782673 L50.183788,9.93193239 L51.9739351,11.6907939 L51.4615071,12.0677651 L50.6932518,12.8220875 L50.3100907,13.2004516 L49.801658,12.7063496 L48.523939,11.3223067 L48.1402624,10.9459686 L48.523939,10.5679843 L49.4200435,9.81315542 L49.8001115,9.42782673 Z M50.696216,8.04429034 L51.3366221,7.54183085 L51.849179,8.16952533 L54.2817941,10.6808098 L54.7928044,11.1828894 L54.2817941,11.6868684 L51.2087729,14.4544477 L50.9520434,14.7056774 L50.5683668,14.7056774 C50.4405176,14.5800626 50.183788,14.4544477 49.8001115,14.0764634 C49.8001115,13.9508485 49.9279607,13.9508485 49.9279607,13.8252337 C50.0559388,13.8252337 50.0559388,13.6996188 50.183788,13.5729909 L50.183788,13.3216345 L50.5683668,13.6996188 C50.696216,13.8252337 50.696216,13.8252337 50.8241941,13.8252337 C50.8583474,13.8262467 50.891083,13.8133307 50.9153125,13.7896512 C50.9394131,13.7658452 50.9525589,13.7331752 50.9520434,13.6996188 L53.7687218,11.1888409 L51.3366221,8.67742982 L50.696216,8.04429034 Z M53.000982,11.1888409 L52.4880385,11.6923134 L51.9770282,11.1888409 L50.183788,9.30271837 L49.6727778,8.79873935 L50.183788,8.29665974 L50.696216,8.79873935 L52.4880385,10.6862548 L53.000982,11.1888409 Z M50.3187257,12.2013575 L50.9575852,11.5721435 L49.8061688,10.439457 L49.1657628,11.0685444 L50.3187257,12.2013575 Z M45.3204909,3.52139516 C45.1926416,3.8992528 45.1926416,4.02486767 45.0647924,4.27622405 L45.0647924,4.77969656 C44.9374587,5.01573096 44.9374587,5.29861768 45.0647924,5.53452545 C45.0647924,5.78537531 45.1926416,6.03812459 45.3204909,6.4144627 C45.448469,6.66581907 45.5773493,7.04367671 45.8330477,7.29503308 C45.9846109,7.14561217 46.1573105,7.01847776 46.3456046,6.91806184 C46.4734538,6.91806184 46.4734538,6.91806184 46.601303,6.79295348 L46.2167243,6.4144627 C46.147129,6.34671677 46.101892,6.25871038 46.0887462,6.16373946 C45.960897,6.03812459 45.9312545,5.88477821 45.8330477,5.65963381 C45.7408983,5.41878755 45.6975946,5.16261932 45.7051985,4.90531143 C45.7947703,4.75196505 45.8391051,4.57785169 45.8330477,4.40133241 C45.905994,4.33649892 45.9513598,4.246973 45.960897,4.15048254 C45.960897,4.02486767 46.0887462,4.02486767 46.0887462,3.8992528 L45.3204909,3.52139516 Z M41.3518806,6.28884782 L40.8409992,6.28884782 L40.8409992,6.5402042 C40.8394526,6.75635801 40.7956333,6.96997927 40.7116034,7.16929158 C40.9683329,7.16929158 41.0961821,7.29503308 41.3518806,7.29503308 C41.4798587,7.42064796 41.8644374,7.54727585 42.5048435,7.7985056 C43.0324794,7.97021302 43.5459384,8.18041533 44.0413541,8.42771961 C44.0413541,8.67894936 44.1692034,8.80456423 44.0413541,8.92979922 L44.0413541,9.1825485 L44.2965371,9.05693363 C44.5155047,9.04604363 44.7309925,9.00299014 44.9369432,8.92979922 C44.9369432,8.42771961 44.8096095,7.67441026 44.6802137,6.79295348 L43.9119584,6.79295348 L43.9119584,7.16929158 C44.0413541,7.29503308 44.0413541,7.42064796 44.0413541,7.7985056 C43.4009481,7.42064796 42.6326927,7.16929158 41.9922867,6.79295348 C42.248114,6.66581907 42.5048435,6.5402042 42.760542,6.5402042 L44.038261,5.91099018 C44.1364678,5.90212623 44.2275861,5.8570467 44.2940884,5.78537531 C44.0820803,5.56567591 43.9104118,5.31102721 43.7870734,5.03345886 L43.6592241,5.15907374 C43.5449073,5.2615157 43.4155115,5.34660965 43.2760631,5.41144313 L42.5078078,5.78828775 C42.3321439,5.9455596 42.1045414,6.03508552 41.8674017,6.04053052 C41.7395524,6.16614539 41.4823074,6.16614539 41.3549737,6.29188689 L41.3518806,6.28884782 Z M41.4798587,4.90531143 C41.8644374,4.90531143 42.279303,4.75057214 42.6326927,4.65408169 C42.9841493,4.55708472 43.3269708,4.43045682 43.656131,4.27622405 C43.9119584,4.02486767 44.2965371,3.8992528 44.6802137,3.64701003 C44.4243863,3.52139516 44.2965371,3.27003878 44.1692034,3.01880904 L44.0413541,3.14442391 C43.7841091,3.27003878 43.5287973,3.52139516 43.143703,3.64701003 C42.8114497,3.7944049 42.4690148,3.92052629 42.1201359,4.02486767 C41.8644374,4.15048254 41.4798587,4.15048254 41.2240313,4.15048254 L41.3518806,4.27622405 C41.3518806,4.40133241 41.4798587,4.65408169 41.4798587,4.90531143 Z M32.1339767,5.15616129 L32.2618259,4.40133241 L32.902232,0.754828888 L33.0295657,0 L33.797821,0.125614873 L37.255421,0.754828888 L38.0236764,0.88044376 L37.8958271,1.50965778 L37.255421,5.40891057 C37.255421,5.53452545 37.255421,5.65963381 37.1275718,5.65963381 C37.1275718,5.78537531 36.9997226,5.91099018 36.7429931,5.91099018 L35.977702,5.91099018 L35.977702,5.65963381 C35.9948431,5.52173603 35.9480595,5.38371162 35.8498528,5.2832957 L35.8498528,5.03345886 C35.977702,5.03345886 36.1055512,5.15907374 36.2344315,5.15907374 L36.4902588,5.15907374 C36.4902588,5.03345886 36.4902588,5.03345886 36.6181081,4.90784399 L37.1306649,1.38556244 L33.672936,0.882976318 L33.5450868,1.63780521 L33.672936,1.63780521 C33.8009142,1.63780521 33.9303099,1.51219033 34.0576437,1.51219033 C34.2156509,1.63337323 34.3098624,1.81787007 34.3133421,2.01464982 C34.4115489,1.9142339 34.4583324,1.77582961 34.4411914,1.63780521 C34.4508574,1.54080824 34.4960944,1.45128232 34.5691695,1.38556244 L34.5691695,1.12724153 C34.825899,1.25298303 34.9537482,1.3785979 35.3374248,1.3785979 C35.3374248,1.5052258 35.2094467,1.5052258 35.2094467,1.63084067 L35.2094467,1.75645554 L35.0815974,2.13292028 C35.2094467,2.00781192 35.4663051,2.00781192 35.4663051,1.88207042 L35.5941543,1.88207042 C35.7220035,2.00781192 35.8498528,2.13292028 35.8498528,2.26005469 C35.9425177,2.06314831 35.986337,1.847501 35.977702,1.63084067 L36.1055512,1.5052258 C36.3624096,1.63084067 36.6181081,1.63084067 36.873291,1.75645554 C36.8396533,1.75544252 36.8064022,1.76886508 36.7821727,1.79254449 C36.7580721,1.81584403 36.7449263,1.84851402 36.7459573,1.88207042 L36.6181081,2.26005469 C36.6181081,2.51128443 36.4902588,2.6368993 36.4902588,2.76213429 L36.2344315,3.14049845 C36.3814839,3.42541121 36.5093331,3.71918793 36.6181081,4.0204357 L36.6181081,4.14605057 C36.4902588,4.27179207 36.2344315,4.39740694 35.977702,4.64964971 L35.977702,4.27179207 L35.8498528,3.89532733 C35.6982896,4.11933208 35.526621,4.3300409 35.3374248,4.52454135 C35.2094467,4.64964971 35.0815974,4.77526458 34.9537482,4.77526458 L34.825899,4.64964971 C34.6980497,4.52454135 34.5691695,4.52454135 34.4411914,4.27179207 C34.6339962,4.17821405 34.8077269,4.05057313 34.9537482,3.89532733 C35.0488619,3.70538549 35.1792887,3.53469109 35.3374248,3.39122168 L35.4663051,3.14049845 C35.4663051,2.88774917 35.3374248,2.76213429 35.3374248,2.6368993 C35.3374248,2.51128443 35.2094467,2.38566956 35.0815974,2.13292028 C34.9537482,2.38566956 34.825899,2.51128443 34.825899,2.6368993 L34.6980497,2.76213429 C34.825899,3.01488357 34.9537482,3.39122168 35.0815974,3.64257805 L34.3133421,4.0204357 L34.3133421,3.51696318 C34.1854929,3.64257805 34.1854929,3.76971246 34.0576437,3.76971246 C34.0576437,3.89532733 33.8009142,4.0204357 33.5450868,4.27179207 C33.5461178,4.23810905 33.5331009,4.20594556 33.5088714,4.18213952 C33.484642,4.1584601 33.4515197,4.14554406 33.4172376,4.14605057 C33.4172376,4.0204357 33.2899039,3.89532733 33.1620546,3.76971246 L33.0326588,4.52454135 L32.9046807,5.27886372 L32.1339767,5.15616129 Z M33.1589615,3.64701003 C33.4147888,3.52139516 33.5426381,3.39578028 33.5426381,3.27003878 C33.7006453,3.12669601 33.8310721,2.9560016 33.9272168,2.76656627 C33.797821,2.38959502 33.6699718,2.13735226 33.6699718,2.01173738 L33.5426381,1.76038101 L33.1589615,3.64701003 Z M26.2458236,3.52139516 L27.5235426,3.27003878 L27.3955645,2.6409514 L26.1178455,2.89218114 L26.2458236,3.52139516 Z M25.9884497,2.26549969 L27.3971111,2.01325692 L27.2692618,1.25842803 L25.8606004,1.51117731 L25.9884497,2.26549969 Z M24.3246053,3.90077233 L25.4775682,3.64802305 L25.3495901,3.02032857 L24.1967561,3.14594345 L24.3246053,3.90077233 Z M23.0463707,1.25842803 L23.6852303,1.13268653 L24.9634648,1.00707166 L24.9634648,0.629214015 L24.8356156,0.127134407 L25.6038709,0.00151953475 L25.7317201,0.503599142 L25.7317201,0.881963295 L27.3955645,0.629214015 L27.9081213,0.503599142 L27.9081213,1.00707166 L28.2917979,3.39717319 L28.4206782,4.02638721 L27.6528095,4.15200208 L27.6528095,4.02638721 L26.3747038,4.15200208 L26.5025531,4.78121609 L26.5025531,4.90632446 C26.5025531,5.03193933 26.6304023,5.03193933 26.7582515,5.03193933 L27.5265069,4.90632446 C27.7042328,4.89898004 27.87835,4.85643306 28.0390637,4.78121609 C28.1669129,4.78121609 28.2942467,4.65560122 28.4236424,4.65560122 L28.4236424,4.02638721 C28.807319,4.15200208 29.062502,4.27711044 29.319747,4.27711044 C29.1918978,4.65560122 29.1918978,5.03193933 29.062502,5.03193933 C29.0503872,5.16553176 28.9431588,5.27189919 28.807319,5.28481524 C28.807319,5.41043011 28.6793409,5.41043011 28.4236424,5.41043011 C28.2942467,5.53553847 27.9110856,5.53553847 27.5265069,5.53553847 C27.2380728,5.6310159 26.9344309,5.67356288 26.6304023,5.66115334 C26.3747038,5.78676822 26.2467257,5.78676822 26.119392,5.66115334 C26.0217008,5.64836393 25.9316135,5.60429742 25.862147,5.53553847 C25.862147,5.41043011 25.7342978,5.28481524 25.7342978,5.15768083 L25.6064485,4.27711044 L24.4534856,4.52998635 L23.6852303,4.65560122 L23.5578966,4.15200208 L23.17422,1.76190054 L23.0463707,1.25842803 Z M24.0704534,2.51381699 L25.2217409,2.388582 L25.0938917,1.63375311 L23.9424753,1.88460297 L24.0704534,2.51381699 Z M15.1051548,5.91099018 L14.9757591,5.53452545 L14.8479098,5.15616129 L18.3055098,3.39578028 L18.5608217,3.77363793 L18.6886709,4.02486767 L19.4569262,3.64701003 L19.2010989,3.39578028 L18.9443694,2.76656627 L18.6886709,2.38959502 L18.176114,2.76656627 L16.5122697,3.52139516 C16.5460363,3.52190167 16.5792874,3.50898562 16.603388,3.48530621 C16.6276175,3.46150016 16.6406344,3.42933668 16.6396034,3.39578028 C16.5122697,3.27003878 16.2565712,3.27003878 15.8728946,3.14442391 C15.7440144,3.39578028 15.6161651,3.52139516 15.6161651,3.64701003 L15.4883159,3.77363793 C15.6161651,3.77363793 15.7440144,3.8992528 15.8728946,3.8992528 L14.4647488,4.65408169 L13.8244716,4.90531143 L13.9518053,5.2832957 L14.3368995,5.91099018 L14.4647488,6.16373946 L15.1051548,5.91099018 Z M17.0272753,7.54474329 C16.7720923,8.0468229 16.2595355,8.42468054 15.7495562,8.92726666 L16.0068013,9.05389456 C16.1342638,9.05389456 16.2621131,9.17950943 16.3899623,9.30525093 L17.0303684,8.67603692 C17.1582176,8.42468054 17.4139161,8.17243777 17.5427964,7.92120803 C17.7341836,7.64022073 17.9048211,7.3459375 18.0543222,7.04127078 L18.1816559,7.16637914 L18.1816559,7.41760889 C18.3110517,7.54474329 18.3110517,7.67035817 18.1816559,7.67035817 C18.1816559,7.79559316 18.0543222,7.92120803 17.6706456,8.0468229 L17.9264729,8.17243777 C18.0543222,8.17243777 18.1816559,8.29957218 18.3110517,8.55042204 C18.6947283,8.29957218 18.9499112,8.17243777 19.079307,7.92120803 L19.079307,7.41760889 C18.9499112,7.29199401 18.9499112,7.16637914 18.822062,6.91552928 C18.7214065,6.80029789 18.6353145,6.67367 18.5667501,6.53716513 C18.5667501,6.41205677 18.4389009,6.41205677 18.4389009,6.28644189 L18.5667501,6.03508552 C18.822062,6.28644189 18.9499112,6.53716513 19.2071562,6.66278 C19.4638857,6.7885215 19.5903173,6.91552928 19.8475623,6.91552928 C20.1027453,7.04127078 20.4864218,7.04127078 20.9989787,7.16637914 L20.9989787,6.66581907 C21.0970566,6.56540315 21.143969,6.42737874 21.1268279,6.28884782 L20.1027453,6.28884782 L19.3350055,5.91099018 L18.9499112,5.53452545 L19.3350055,4.77969656 C19.1749362,4.70308668 19.0003034,4.66053971 18.822062,4.65408169 C18.7254018,4.64078576 18.63583,4.59671925 18.5667501,4.52846681 L18.4389009,4.90531143 C18.3110517,5.03054642 18.1816559,5.40891057 17.9264729,5.91099018 L17.7986237,5.78537531 C17.6706456,5.78537531 17.5427964,5.65963381 17.2860669,5.65963381 C17.4426564,5.46829906 17.5720522,5.25657722 17.6706456,5.03054642 L17.4139161,5.03054642 L18.1816559,4.65408169 L18.6947283,4.40133241 L18.4389009,3.77363793 L17.9264729,4.02486767 L15.621707,5.28025663 L15.1106967,5.40599813 L15.4938578,6.03508552 L15.878952,5.78284275 L16.6456608,5.40599813 C16.3799096,5.76802729 16.0798764,6.10485749 15.7495562,6.41205677 C15.4938578,6.53716513 15.2385459,6.78991441 15.1106967,6.78991441 C15.2501452,6.85474789 15.379541,6.93933532 15.4938578,7.04127078 L15.7495562,7.29199401 L16.9023903,6.16070039 L16.5178115,6.91552928 L16.0068013,7.41760889 C15.9087234,7.51409934 15.621707,7.67035817 15.4938578,7.79559316 C15.6338217,7.86080652 15.7636042,7.94539396 15.878952,8.0468229 L16.1342638,8.29957218 C16.4412567,8.00427593 16.7005638,7.66440666 16.9023903,7.29199401 C17.1582176,7.04127078 17.2860669,6.78991441 17.5427964,6.41205677 L17.6706456,6.53716513 C17.4748765,6.88349242 17.2609352,7.21981611 17.0303684,7.54474329 L17.0272753,7.54474329 Z M10.3693203,13.8366302 L12.9252739,11.1941593 L9.99324763,8.42771961 L7.43729402,11.0685444 L10.3693203,13.8366302 Z M6.40070997,11.1941593 L6.78580423,10.6922063 L9.60158047,7.92412047 L9.99324763,7.42064796 L10.5058045,7.92412047 L13.4493011,10.6922063 L13.9618579,11.0685444 L13.4493011,11.6977584 L13.4493011,11.5721435 L10.7544145,14.2129683 L10.8823926,14.3387098 L10.3693203,14.8421823 L9.85830998,14.3387098 L6.78580423,11.5721435 L6.40070997,11.1941593 Z M9.60158047,13.0818013 L10.1141373,12.7063496 L10.6265653,12.0771356 L9.99324763,11.5721435 L9.60866889,11.9489881 L9.22499231,12.3269724 L8.71256434,11.9489881 L9.09714308,11.5721435 L9.60866889,11.0685444 L9.09714308,10.6922063 L8.57350252,11.1941593 L8.18995482,11.6977584 L7.67739797,11.1941593 L8.06055903,10.8173146 L9.72646546,9.1825485 L10.1094976,8.80456423 L10.62257,9.1825485 L10.2374757,9.55888661 L9.60158047,10.1955717 L10.1141373,10.5719098 L10.6265653,10.0699568 L10.8823926,9.69146601 L11.3948206,10.1955717 L11.0097264,10.4462949 L11.7779817,10.4462949 L11.7779817,10.949894 L12.1630759,10.5719098 L12.546237,10.949894 L12.1630759,11.3267387 L10.4987161,13.0886392 L10.1141373,13.4656105 L9.60158047,13.0818013 Z M11.5226698,11.0685444 L10.7544145,11.0685444 C10.8526213,10.968635 10.8994048,10.8301041 10.8823926,10.6922063 L10.4987161,10.9429295 L11.1375756,11.5721435 L11.5226698,11.0685444 Z M57.1015657,26.9183049 C56.9735876,26.79269 57.1015657,26.6655556 57.1015657,26.5404472 C57.2308326,26.5404472 57.4861444,26.4148323 57.7418429,26.4148323 L59.4062027,26.0378611 L60.0466088,26.0378611 C60.1739425,26.163476 60.3019207,26.163476 60.3019207,26.4148323 L60.8143486,26.2892175 L60.5591657,24.403095 L59.9187596,24.5287098 C60.0466088,24.6538182 59.9187596,24.7795597 59.9187596,24.9051746 C59.7909104,24.9051746 59.5336653,25.0307894 59.2783535,25.0307894 L57.6139936,25.4086471 L56.9735876,25.4086471 C56.8457383,25.2830322 56.7178891,25.2830322 56.7178891,25.0307894 L56.2053322,25.1564043 L56.5905554,27.0439197 L57.1015657,26.9183049 Z M57.3582952,31.6980014 C57.3582952,31.4467717 57.3582952,31.3211568 57.4861444,31.3211568 C57.6139936,31.1940224 57.7418429,31.1940224 58.1265505,31.1940224 L59.7909104,31.068914 L60.5591657,31.068914 C60.5591657,31.1940224 60.6870149,31.3211568 60.6870149,31.4467717 L61.1994429,31.4467717 L61.070176,29.5592563 L60.5591657,29.5592563 C60.5763068,29.6976605 60.5293943,29.836698 60.4313165,29.9371139 C60.3019207,29.9371139 60.1739425,30.0627288 59.7909104,30.0627288 L59.0226551,30.0627288 L58.8948058,28.6788125 L59.6630611,28.553071 C60.0466088,28.553071 60.3019207,28.553071 60.3019207,28.6788125 C60.439307,28.6876764 60.5494997,28.7950569 60.5591657,28.9300422 L61.070176,28.9300422 L60.9421979,27.0439197 L60.3019207,27.0439197 C60.4313165,27.2947696 60.3019207,27.4203845 60.3019207,27.4203845 C60.1739425,27.5475189 59.9187596,27.5475189 59.5336653,27.5475189 L57.869821,27.6731337 L57.2308326,27.6731337 C57.1015657,27.5475189 57.1015657,27.5475189 57.1015657,27.2947696 L56.4627062,27.2947696 L56.5905554,29.3078999 L57.1015657,29.182285 C57.1015657,29.0571766 57.2308326,28.9300422 57.3582952,28.8044274 C57.6638703,28.6550065 58.0470314,28.6788125 58.382249,28.6788125 L58.5100982,30.1883436 L57.9976702,30.1883436 C57.7418429,30.1883436 57.4861444,30.1883436 57.3582952,30.0627288 C57.2308326,30.0627288 57.2308326,29.9371139 57.2308326,29.811499 L56.7178891,29.811499 L56.8457383,31.6980014 L57.3582952,31.6980014 Z M56.8502491,32.4523238 C56.8502491,32.5780653 56.7223999,32.7036802 56.5945507,32.8308146 L56.5945507,33.3328942 C56.4667014,33.9619816 56.5945507,34.3404723 56.9782273,34.8424253 C57.4906552,35.2204096 58.0016655,35.4716393 58.6420716,35.4716393 C59.2823488,35.5972542 59.9203062,35.4716393 60.3064315,35.0937817 C60.8188594,34.7168105 61.0746868,34.3404723 61.0746868,33.7112583 C61.1774044,33.3308681 61.131523,32.9266719 60.9468376,32.5780653 C60.7005473,32.1927366 60.3447089,31.8865504 59.9227549,31.6980014 L59.6670564,32.0759857 C59.9227549,32.3272154 60.2097713,32.6087092 60.3064315,32.8308146 C60.4025762,33.0524134 60.563161,33.2071527 60.563161,33.4585091 C60.4353117,33.8363667 60.3064315,34.0875964 59.9227549,34.3404723 C59.6670564,34.4655807 59.2823488,34.4655807 58.7699208,34.4655807 C58.257364,34.4655807 57.745967,34.3404723 57.4922018,34.0875964 C57.2384365,33.8635917 57.097957,33.5420835 57.1071075,33.2071527 C57.1071075,32.9564294 57.2363744,32.829295 57.4922018,32.5780653 C57.7423584,32.3386119 58.0505111,32.1660181 58.3877908,32.0759857 L58.3877908,31.6980014 L56.7239465,32.0759857 L56.5960972,32.3272154 L56.8517957,32.4523238 L56.8502491,32.4523238 Z M55.1858893,40.3765709 C55.3138674,40.2513359 55.3138674,40.125721 55.4417166,40.125721 C55.5695658,40.0001062 55.8262954,40.125721 56.0819938,40.2513359 L57.745967,40.754935 L58.2589105,41.0056583 C58.3862443,41.1312732 58.3862443,41.2570147 58.3862443,41.5097639 L58.8993166,41.6348723 L59.5381762,39.7487498 L59.0266503,39.6221219 L58.7699208,39.8744913 C58.5499222,39.8828487 58.3309546,39.8397952 58.1310613,39.7487498 L57.3557176,39.492075 L57.4835668,39.3664602 C57.4932328,39.2318547 57.6018789,39.1251074 57.7388786,39.1156103 C57.8667279,38.9899954 58.1239729,38.9899954 58.3792847,39.1156103 L58.507134,38.7372462 L56.459613,38.1080321 L56.3302172,38.360908 C56.5874623,38.4865229 56.8432896,38.6121378 56.8432896,38.7372462 C56.9711388,38.862861 56.9711388,38.9899954 56.8432896,39.2413518 L56.8432896,39.3664602 L56.2028835,39.1156103 C55.9471851,39.1156103 55.8192069,38.9899954 55.8192069,38.862861 L55.8192069,38.4865229 C55.9471851,38.2351665 56.0750343,37.9829238 56.3302172,37.8573089 C56.5593664,37.6084851 56.8871089,37.4709672 57.2278683,37.4803377 L57.0984725,37.10248 L55.8207535,37.2280949 L54.6679194,40.2469039 L55.1858893,40.3765709 Z M53.5220449,43.7737441 C53.2416014,43.2498845 53.2914781,42.614719 53.6498942,42.1388513 C53.8946378,41.6457623 54.2998374,41.2471377 54.8013105,41.0056583 C55.408981,40.8473734 56.0563466,40.9379124 56.5945507,41.2570147 C57.1544066,41.4568335 57.6129626,41.8634356 57.8722697,42.3897012 C58.0217708,42.9333147 57.9765339,43.5106113 57.744936,44.0249738 C57.4891087,44.6541878 57.1045299,45.030526 56.4667014,45.1576604 C55.9129029,45.3006233 55.3258532,45.2556703 54.8013105,45.030526 C54.162451,44.6541878 53.7773567,44.2762036 53.5235915,43.775137 L53.5220449,43.7737441 Z M54.799764,41.886102 C54.4167318,41.886102 54.2887537,42.1388513 54.0315086,42.3897012 C53.9036594,42.6409309 54.0315086,42.8933003 54.1609044,43.2701449 C54.4508851,43.5827892 54.7983463,43.8384509 55.1844716,44.0249738 C55.5881246,44.1946552 56.0236111,44.2802557 56.4627062,44.2762036 C56.8457383,44.2762036 57.1015657,44.1505887 57.2308326,43.7737441 C57.3582952,43.5213747 57.3582952,43.2701449 57.1015657,42.8933003 C56.9735876,42.6409309 56.5905554,42.3897012 56.077483,42.1388513 C55.6818206,41.945997 55.2407923,41.8590037 54.799764,41.886102 Z M49.5464751,48.4278258 C49.6481616,48.3313353 49.7890278,48.2853694 49.9295073,48.3020843 C50.0573565,48.3020843 50.1853346,48.4278258 50.4420641,48.6790555 L51.7202987,49.811742 C51.9770282,50.0630984 52.1048774,50.1882068 52.1048774,50.3138217 C52.1220185,50.4523526 52.075235,50.5912634 51.9770282,50.6921858 L52.3605759,51.0686505 L53.3856896,49.9373569 L53.000982,49.6861272 C52.8987799,49.7826176 52.7577849,49.8285836 52.6174343,49.811742 C52.4880385,49.811742 52.3605759,49.6861272 52.1048774,49.4338844 L50.5683668,48.0498415 L54.2817941,48.9312983 L54.7928044,48.4278258 L52.618852,46.4145689 C52.3616069,46.1638456 52.2342732,46.0381041 52.2342732,45.9124892 C52.106424,45.7853548 52.2342732,45.65974 52.3616069,45.5346316 L51.9785748,45.2834019 L50.953461,46.288954 L51.3381687,46.6673181 C51.4660179,46.5401837 51.5938671,46.4145689 51.7212008,46.4145689 C51.8743106,46.5624702 52.0470102,46.6901112 52.2342732,46.792933 L53.1298622,47.6729969 L50.3187257,46.918168 L49.1657628,48.1740635 L49.5464751,48.4278258 Z M46.7291523,50.9391102 C46.7201307,50.3430727 47.0065026,49.7800851 47.4974076,49.4294524 C47.9680784,49.0683097 48.5772954,48.9302853 49.1612519,49.0529877 C49.6738088,49.0529877 50.1853346,49.4294524 50.6977626,49.9329249 C51.0823413,50.4355111 51.3381687,50.9391102 51.2103194,51.5681976 C51.1876365,52.1216881 50.9037133,52.6331382 50.4420641,52.9522405 C49.9592786,53.2955287 49.3737755,53.472048 48.7782198,53.4543201 C48.1619143,53.3064187 47.6177818,52.9502144 47.2417091,52.4482615 C46.9018518,52.0168402 46.7211617,51.4846232 46.7291523,50.9391102 Z M48.7782198,49.8156675 C48.3929966,49.6905591 48.1378137,49.6905591 47.8805687,49.941409 C47.6252568,50.0670239 47.4974076,50.3182536 47.6252568,50.6962379 C47.6252568,51.0730825 47.8805687,51.4510668 48.1378137,51.8274049 C48.5208459,52.205769 48.906069,52.5822338 49.1612519,52.7078487 C49.5464751,52.8349831 49.801658,52.7078487 50.0573565,52.5822338 C50.3142149,52.3315105 50.4420641,52.0801542 50.3142149,51.7022965 C50.3142149,51.4510668 50.1853346,51.0730825 49.801658,50.5704964 C49.4170793,50.1926388 49.1612519,49.941409 48.7782198,49.8156675 Z M40.9683329,54.9777803 L41.3518806,54.9777803 C41.3518806,54.6009357 41.3518806,54.3500858 41.4798587,54.2229514 C41.4798587,53.9717217 41.7365882,53.8466133 41.8644374,53.7208718 L41.9922867,53.7208718 L43.143703,55.7326092 C43.2730988,56.1104668 43.4009481,56.2362083 43.4009481,56.3618232 C43.2730988,56.4874381 43.2730988,56.614066 43.0158538,56.7396809 L43.2730988,57.1166521 L45.0647924,56.2331693 L44.8096095,55.8568312 L44.4243863,55.8568312 C44.2668946,55.7128552 44.1374988,55.5421608 44.0413541,55.353232 L42.8883912,53.2143602 C43.143703,53.0887454 43.4009481,52.9631305 43.656131,53.0887454 C43.7841091,53.0887454 44.0413541,53.2143602 44.4243863,53.4657166 L44.6802137,53.0887454 L43.5287973,52.2083016 L40.7116034,53.7179594 L40.9683329,54.9777803 Z M38.6640824,54.3500858 L39.560187,54.0973366 L41.7365882,56.608621 C41.9922867,56.8598507 42.2485006,56.9850857 42.5048435,56.9850857 L42.6326927,57.4890647 L40.8409992,58.1182788 L40.7116034,57.6141731 C40.8087791,57.6013837 40.8993819,57.5573172 40.9683329,57.4890647 L40.9683329,57.2363155 C40.9683329,57.1107006 40.9683329,57.1107006 40.8409992,57.1107006 L40.455776,56.608621 L39.3044885,57.1107006 L39.4323378,57.6141731 L39.4323378,57.7399146 C39.4453547,57.835392 39.4907205,57.9233984 39.560187,57.9911444 L39.943348,57.9911444 L40.2005931,58.369002 L38.6640824,58.998216 L38.4068374,58.4947435 C38.6640824,58.369002 38.7919317,58.1182788 38.7919317,57.6141731 L38.6640824,54.3500858 Z M39.3044885,55.2300231 L39.3044885,56.4859186 L40.0727438,56.2346888 L39.3044885,55.2300231 Z M33.0295657,55.4813795 L35.3343317,55.2300231 C35.8468885,55.1049147 36.3593165,55.1049147 36.6120507,55.2300231 C36.8677492,55.4813795 37.1251231,55.7326092 37.1251231,56.1104668 C37.2524568,56.3618232 37.1251231,56.614066 36.997145,56.8652957 C36.8677492,56.9910372 36.7398999,57.2417605 36.3568678,57.3688949 L37.380306,58.2493386 C37.5081553,58.3749535 37.6360045,58.5001885 37.7654003,58.5001885 C37.8942806,58.5001885 38.0207121,58.6258034 38.1485613,58.5001885 L38.1485613,59.0041675 L36.997145,59.2548908 L35.3313674,57.6201246 L34.9482064,57.7457395 L35.0760556,58.2493386 C35.0810819,58.482334 35.1716848,58.7059588 35.3313674,58.8785526 C35.4914367,59.0511465 35.4607632,59.0041675 35.7164617,58.8785526 L35.7164617,59.5062471 L33.7953723,59.7584899 L33.6673942,59.2548908 C33.9242526,59.2548908 34.0521018,59.1292759 34.0521018,59.0041675 C34.179951,59.0041675 34.179951,58.7514182 34.0521018,58.3749535 L33.7953723,56.7396809 C33.7908615,56.506179 33.6996143,56.2826808 33.539545,56.1104668 C33.3794757,55.9383795 33.4116957,55.984852 33.1565128,56.1104668 L33.0295657,55.4813795 Z M34.9511706,57.1166521 L35.0786332,57.1166521 C35.4637275,56.9910372 35.7189104,56.9910372 35.9747377,56.8652957 C36.0779708,56.6719349 36.1221768,56.4537551 36.102587,56.2362083 C36.102587,56.1104668 35.9747377,55.8592371 35.8468885,55.8592371 C35.5915767,55.7326092 35.4637275,55.7326092 35.0786332,55.7326092 C34.9814575,55.7460318 34.8917568,55.7904781 34.8233214,55.8592371 C34.6954721,55.984852 34.6954721,56.1104668 34.8233214,56.3618232 L34.9511706,57.1166521 Z M29.4461785,56.2331693 C29.849316,55.8265671 30.4041456,55.5995233 30.9821737,55.6039553 C31.6224509,55.6039553 32.1339767,55.7296968 32.5185554,56.1075544 C32.9349676,56.5536645 33.1634723,57.1379256 33.1589615,57.742827 C33.1589615,58.3720411 33.0295657,58.998216 32.6465335,59.3775932 C32.2422361,59.7822959 31.686891,60.0068072 31.1100229,59.9998427 C30.4696168,59.9998427 29.9586065,59.8747343 29.5740278,59.4963702 C29.0609554,59.1199054 28.9336217,58.4906914 28.9336217,57.861604 C28.8258778,57.2689855 29.0171361,56.6625645 29.4461785,56.2331693 Z M31.7503001,56.4845256 C31.4951172,56.2331693 31.2378721,56.1075544 30.9821737,56.1075544 C30.597466,56.1075544 30.3417676,56.2331693 30.2144339,56.6115334 C30.0426365,57.0082586 29.9556423,57.4356278 29.9586065,57.867049 C29.9490694,58.3146786 30.082976,58.7538242 30.3417676,59.122438 C30.4696168,59.3736677 30.7268618,59.4992826 31.1100229,59.4992826 C31.3657214,59.4992826 31.6224509,59.3736677 31.8782782,58.997203 C32.0610304,58.6040234 32.1062674,58.1623453 32.0061274,57.7413075 C31.9950437,57.3115324 31.9084362,56.8865692 31.7503001,56.4859186 L31.7503001,56.4845256 Z M25.3495901,55.2290101 L27.5249603,55.4798599 C28.0375171,55.4798599 28.2932156,55.7310897 28.5499451,55.9834591 C28.807319,56.2362083 28.9336217,56.4859186 28.8057725,56.9895177 C28.8057725,57.3673753 28.6779232,57.6187317 28.2932156,57.7443466 C28.0375171,57.9950698 27.6538406,57.9950698 27.2692618,57.9950698 L26.5010065,57.8699615 L26.5010065,59.002648 C26.5010065,59.1282629 26.6288557,59.1282629 26.8861008,59.1282629 L26.756705,59.631862 L24.8371622,59.5047276 L24.9650114,58.8770331 C25.0923451,59.002648 25.2203232,58.8770331 25.3495901,58.8770331 C25.3495901,58.7498987 25.4775682,58.4991755 25.4775682,58.2478191 L25.7327512,56.6125465 L25.7327512,55.8582241 C25.6054175,55.8582241 25.4775682,55.7310897 25.3495901,55.7310897 L25.3495901,55.2290101 Z M26.6273092,57.3673753 L26.7552873,57.3673753 C27.139866,57.4929902 27.3955645,57.3673753 27.5235426,57.2407474 C27.6528095,57.2407474 27.7802721,56.9895177 27.7802721,56.7381613 C27.7802721,56.4874381 27.7490831,56.3311793 27.6528095,56.2346888 C27.5254758,56.0837484 27.3392438,55.9928295 27.139866,55.9834591 L26.8902249,55.9834591 C26.7608291,56.1090739 26.7608291,56.2346888 26.7608291,56.4859186 L26.6273092,57.3673753 Z M21.2501664,53.9707087 L23.4269542,54.5999227 C23.939511,54.725031 24.3231876,54.9762608 24.4510369,55.2290101 C24.7077664,55.4798599 24.7077664,55.7310897 24.7077664,56.1090739 C24.5799171,56.4859186 24.4510369,56.6125465 24.1952095,56.7381613 C23.9817838,56.9168333 23.7063666,57.0068657 23.4269542,56.9895177 L23.939511,58.2449067 C23.92237,58.3829311 23.9691535,58.5213354 24.0673603,58.6217513 C24.1952095,58.6217513 24.3231876,58.7474928 24.4510369,58.7474928 L24.1952095,59.2509653 L23.043922,58.8741207 L22.4035159,56.8608638 L22.0184217,56.7357554 L21.7625943,57.237835 C21.7625943,57.4900778 21.6352606,57.7413075 21.7625943,57.867049 C21.7625943,57.9926639 21.8905724,57.9926639 22.0184217,58.1192918 L21.8905724,58.6217513 L19.9709007,57.9926639 L20.09875,57.4900778 C20.3545773,57.6156926 20.481911,57.6156926 20.6113068,57.4900778 L20.8670053,56.9864786 L21.3795621,55.3517125 C21.3795621,54.9733483 21.5074114,54.84824 21.3795621,54.7224985 C21.3664164,54.5890327 21.2586724,54.4836783 21.1223171,54.4712687 L21.2501664,53.9707087 Z M22.1462709,56.1090739 L22.2756667,56.2346888 L22.4035159,56.2346888 C22.786677,56.3603037 23.043922,56.3603037 23.1712557,56.2346888 C23.4269542,56.2346888 23.5549323,56.1090739 23.6827815,55.8582241 C23.6827815,55.7310897 23.6524947,55.4506089 23.5549323,55.354245 C23.4073644,55.2008987 23.2346648,55.0727512 23.043922,54.9762608 L22.6586989,54.9762608 C22.5308496,55.1033952 22.4035159,55.2290101 22.4035159,55.354245 L22.1462709,56.1090739 Z M17.6666503,52.96465 C18.1776606,52.7122806 18.8180667,52.8389085 19.3304947,53.0902649 C19.9709007,53.3414946 20.3545773,53.7194789 20.481911,54.3456539 C20.6445579,54.9011704 20.550862,55.4986008 20.2265992,55.9809265 C19.9709007,56.6101405 19.4583439,56.9864786 18.9483646,57.2363155 C18.3955971,57.3802914 17.8086764,57.3362249 17.2845203,57.1107006 C16.77351,56.7342359 16.3884157,56.3558717 16.1332328,55.8553116 C16.0053836,55.2260976 16.1332328,54.7224985 16.3884157,54.0934111 C16.77351,53.4641971 17.1566711,53.0872258 17.6666503,52.961611 L17.6666503,52.96465 Z M19.586322,54.220039 C19.586322,53.9691891 19.4583439,53.7179594 19.0747962,53.5923445 C18.8180667,53.3401017 18.5622393,53.4657166 18.1776606,53.5923445 C17.8594552,53.8772573 17.5987304,54.2185194 17.4094053,54.5984031 C17.1838648,55.0712317 17.0262442,55.4783404 17.0262442,55.8537921 C17.1537068,56.2307633 17.281556,56.3558717 17.5388011,56.608621 C17.8348391,56.7560159 18.1927396,56.7051114 18.4343901,56.4814866 C18.8160046,56.2593812 19.0924528,55.8978586 19.2026454,55.4759345 C19.4583439,54.9723353 19.586322,54.5954907 19.586322,54.220039 Z M16.3828739,51.9490943 C16.3828739,51.6978646 16.2550247,51.5722497 16.2550247,51.4465082 C16.1271754,51.3213998 15.9993262,51.1942654 15.8718636,51.1942654 C15.3584046,50.8223593 14.8463633,50.6967444 14.335353,50.8174208 C13.6950758,50.8174208 13.3103681,51.1942654 12.7989712,51.6978646 C12.4565363,52.1761381 12.2768772,52.7484962 12.2864144,53.3331372 C12.2864144,53.8366097 12.6700909,54.3402089 13.0546697,54.7166736 C13.3914338,54.9530879 13.7922515,55.0851608 14.2060861,55.0950377 C14.5911803,55.2206526 15.1036083,55.0950377 15.4843206,54.8422885 L15.2284933,54.3402089 C14.9561693,54.4974807 14.6480165,54.5835877 14.3323887,54.5914386 C14.0756592,54.5914386 13.8198319,54.4658237 13.5641334,54.3402089 C13.3103681,54.1160775 13.1700175,53.7936829 13.1795547,53.4582456 C13.1795547,53.0817808 13.4352531,52.7039232 13.6919826,52.3270786 C14.0756592,51.9490943 14.3323887,51.6978646 14.7160653,51.5722497 C15.0990975,51.4465082 15.3563425,51.4465082 15.6116543,51.6978646 C15.8512428,51.8190475 16.0002284,52.0629328 15.9967486,52.3270786 C16.0173694,52.6673277 15.9740657,53.0080834 15.8688994,53.3331372 L16.3799096,53.4582456 L16.8923376,51.9490943 L16.6356081,51.6978646 L16.3799096,51.9490943 L16.3828739,51.9490943 Z M10.1141373,46.0381041 L11.3918564,47.5472554 C11.8207699,47.9855145 12.0518523,48.5752206 12.0321336,49.182528 C11.9082796,49.7331061 11.5902031,50.2232827 11.134998,50.5665709 C10.4961385,51.0686505 9.98319497,51.1942654 9.47063811,51.1942654 C8.85497704,51.045351 8.31123116,50.6897799 7.93412748,50.1882068 L6.78283998,48.6790555 L7.16638768,48.4278258 C7.26858974,48.5241896 7.41010028,48.5702822 7.5510953,48.5534406 L8.06210559,48.3020843 L9.34034016,47.1693977 C9.7249189,47.0437829 9.85276813,46.792933 9.85276813,46.6673181 C9.84374651,46.5704478 9.79786513,46.4804154 9.7249189,46.4145689 L10.1141373,46.0381041 Z M8.57350252,49.182528 C8.31780406,49.3082695 8.18995482,49.4338844 8.18995482,49.5589928 C8.19897644,49.6559897 8.24485782,49.7460222 8.31780406,49.811742 C8.57350252,50.0630984 8.95821014,50.3138217 9.21390861,50.3138217 C9.61975259,50.2001098 10.0069089,50.0309349 10.365325,49.811742 C10.877753,49.4338844 11.1335803,49.0569132 11.1335803,48.8046704 C11.2513769,48.4485927 11.1521391,48.0583256 10.877753,47.7986118 C10.877753,47.6729969 10.7499037,47.6729969 10.62257,47.6729969 C10.4866013,47.6883189 10.3557878,47.7313723 10.2374757,47.7986118 L8.57350252,49.182528 Z M8.31780406,44.528573 C8.41601083,44.6289889 8.46279436,44.7668867 8.44565329,44.9054176 L7.93322532,45.4090167 L6.52456391,46.4145689 C6.26886545,46.5401837 6.0130381,46.6673181 5.88570439,46.6673181 L5.62845936,46.4145689 L5.11744907,46.792933 L6.26886545,48.3020843 L6.78129342,48.0498415 C6.71285799,47.9341036 6.66955422,47.8059562 6.65344419,47.6729969 C6.65344419,47.5472554 6.90914265,47.2950126 7.16497,47.1693977 L8.57350252,46.1638456 C8.82881435,46.0381041 8.95821014,45.9124892 9.08605937,45.9124892 C9.21390861,45.9124892 9.34175784,46.0381041 9.46922043,46.1638456 L9.85431469,45.7853548 L8.70148063,44.2762036 L8.31780406,44.528573 Z M6.657955,40.5021858 C6.657955,40.5021858 6.69326819,40.5258652 7.68152214,42.5153161 C7.91299111,42.9828262 8.06506984,43.3957598 8.06506984,43.6480026 C8.06506984,44.0249738 7.80937137,44.2762036 7.42621031,44.4028315 C7.16896529,44.528573 6.91378234,44.6541878 6.657955,44.528573 C6.40070997,44.528573 6.27337626,44.4028315 6.01754891,44.1505887 L5.37727171,45.4059777 C5.37727171,45.5315925 5.24929359,45.657334 5.24929359,45.7829489 C5.23176588,45.9214798 5.27854942,46.0598841 5.37727171,46.1608065 L4.86471485,46.4121629 L4.35318904,45.2803628 L5.37727171,43.3982924 L5.12144436,43.0218276 L4.73982987,43.2701449 C4.49469958,43.3354849 4.27263887,43.4665448 4.09955266,43.6480026 C4.08189606,43.7865335 4.12919512,43.9250644 4.22843294,44.0249738 L3.71587608,44.2762036 L2.81977153,42.6409309 L3.20331923,42.3897012 C3.33129734,42.5153161 3.46017762,42.6409309 3.58802685,42.6409309 C3.71587608,42.6409309 3.84372532,42.5153161 4.22843294,42.3897012 L5.63554778,41.6348723 C6.02064204,41.3841491 6.14797575,41.2570147 6.27582498,41.2570147 C6.28136683,41.0813818 6.23754754,40.9072684 6.14797575,40.754935 L6.657955,40.5021858 Z M5.63297017,42.7666724 L5.76185045,42.7666724 L5.76185045,42.8933003 C6.01754891,43.2701449 6.14552702,43.3957598 6.40070997,43.5213747 C6.54724684,43.6480026 6.76724547,43.6480026 6.91378234,43.5213747 C7.16896529,43.3957598 7.16896529,43.2701449 7.29681452,43.1445301 C7.3165332,42.9273632 7.27219839,42.7086769 7.16896529,42.5153161 C7.04111605,42.3897012 6.91378234,42.2640863 6.78580423,42.2640863 C6.64996442,42.2799148 6.51902206,42.3224618 6.40070997,42.3897012 L5.63297017,42.7666724 Z M6.01754891,39.492075 L6.01754891,38.9899954 C6.01754891,38.862861 5.88969968,38.7372462 5.88969968,38.6121378 C5.63297017,37.9829238 5.24929359,37.731694 4.73686562,37.4803377 C4.22430877,37.2296144 3.71291184,37.3537098 3.07250575,37.4803377 C2.43209967,37.731694 1.92108938,38.1080321 1.66435987,38.6121378 C1.36484211,39.0148145 1.31599649,39.546525 1.53651064,39.9956742 C1.5399904,40.1924539 1.63420188,40.3769508 1.79169358,40.4981337 C1.92108938,40.6247616 2.17691672,40.7505031 2.30476595,40.8761179 L2.04893861,41.1273477 L2.30476595,41.7565617 L3.32820422,41.2529626 L3.84076107,41.2529626 C3.9686103,41.2529626 3.9686103,41.3795905 4.09645953,41.505332 L4.60901639,41.2529626 L3.9686103,39.6176899 L3.4615953,39.8744913 C3.52204015,39.9189377 3.55735335,39.9887096 3.55735335,40.0629136 C3.55735335,40.1371175 3.52204015,40.2068895 3.4615953,40.2513359 C3.39212883,40.3190818 3.30204152,40.3636548 3.20486579,40.3765709 C3.01051434,40.5026923 2.75881116,40.5026923 2.56445971,40.3765709 C2.43661048,40.3765709 2.30876124,40.125721 2.18091201,40.0001062 C2.05306278,39.6221219 2.18091201,39.3708921 2.30876124,39.1196624 C2.56445971,38.8674196 2.94916733,38.7416781 3.4615953,38.4904484 C3.97312111,38.3648335 4.35769985,38.2397251 4.73982987,38.3648335 C5.00867412,38.3612879 5.25638201,38.5072899 5.38023595,38.7416781 L5.38023595,39.492075 C5.20650534,39.7754683 4.99063088,40.0312566 4.73982987,40.2513359 L5.12453749,40.6293202 L6.27582498,39.7487498 L6.14552702,39.492075 L6.01754891,39.492075 Z M44.5523644,52.3270786 C44.6549531,52.2305881 44.7964637,52.1846222 44.9369432,52.2013371 L45.448469,52.7039232 L46.3456046,54.0874596 C46.4734538,54.4658237 46.601303,54.5914386 46.601303,54.7166736 C46.601303,54.8422885 46.4734538,54.9679033 46.3456046,55.0950377 L46.601303,55.4715025 L48.2656629,54.4658237 L48.0099645,53.9623512 C47.9072469,54.0582085 47.7657363,54.1048076 47.6252568,54.0874596 C47.4974076,54.0874596 47.3695584,53.8366097 47.2417091,53.58538 L46.343027,52.2013371 C46.0857819,51.9490943 45.9579327,51.6978646 45.9579327,51.5722497 C46.0857819,51.4465082 46.0857819,51.3213998 46.2136312,51.3213998 L45.9579327,50.8174208 L44.2940884,51.8234794 L44.5523644,52.3270786 Z M53.0165765,30.3140851 C53.0165765,40.700485 45.5063362,49.3487905 35.5841016,51.5554082 C32.2290903,50.401828 29.2769587,47.7426422 27.0960467,44.1001908 C27.7877472,44.1337472 28.4875671,44.1505887 29.194862,44.1505887 C39.1796035,44.1505887 47.6292521,40.8805499 50.829736,36.3520831 C46.3501154,39.8744913 39.1796035,42.2640863 31.1145337,42.2640863 C29.3857337,42.2645928 27.6588669,42.1551863 25.9447592,41.9366266 C25.4236963,40.8260999 24.9776417,39.6835364 24.6095596,38.5156473 C27.0582848,38.8480456 29.5322706,38.9658095 32.0021322,38.8674196 C41.8770677,38.4725938 50.0831326,34.8885179 53.0165765,30.1869507 L53.0165765,30.3140851 Z M31.4336413,52.0842063 C31.1562909,52.0954761 30.878425,52.1009211 30.5990126,52.1009211 C21.556257,52.1400492 13.3773859,46.830035 9.86836264,38.6412622 C11.8746419,40.2607064 14.6223693,41.6224628 17.8665436,42.5866076 C19.3703187,45.9165413 21.4293099,48.4989906 23.8090842,49.9373569 C22.0627565,48.111256 20.5901705,45.752305 19.4881152,43.0257531 C20.8891727,43.3661289 22.3094333,43.6277421 23.7406488,43.80882 C25.6009067,47.9494256 28.314352,50.9558251 31.4280994,52.0842063 L31.4336413,52.0842063 Z M8.37464026,33.1640992 C8.24782207,32.2194551 8.18441297,31.2672133 8.18441297,30.3140851 C8.18441297,21.1859866 13.9195852,13.398371 22.0792532,10.1494791 C17.9803449,13.8449876 15.2355817,21.0993732 15.2355817,29.4336414 C15.2340351,31.2316309 15.3674262,33.0270878 15.6347239,34.8063364 C13.7040974,34.0623975 11.8881743,33.0587448 10.2388934,31.8232364 C11.4999869,33.4753506 13.426747,34.9092849 15.8432522,36.0464034 C16.0627353,37.1999835 16.3471741,38.340521 16.6950219,39.4629506 C13.0234806,37.8697184 10.1210969,35.6877932 8.37721786,33.1640992 L8.37464026,33.1640992 Z M29.7713435,8.54345751 C30.0467606,8.53358053 30.3206312,8.526616 30.597466,8.526616 C41.4485408,8.526616 50.6182435,16.1173252 52.6063506,26.208049 C49.6244477,32.0675016 40.735704,36.6504184 30.0819449,36.9812971 C28.0929357,37.0767746 26.0992867,37.0223246 24.1187835,36.8190868 C23.4773464,34.2370174 23.1566923,31.5877085 23.1627496,28.9300422 C23.1627496,21.2571515 25.7187032,14.3387098 29.6942731,10.1881006 C24.7022245,13.2074162 21.1167753,21.2571515 21.1167753,30.6963748 C21.1152287,32.6284632 21.2697562,34.5580191 21.5798421,36.4664281 C20.2151289,36.2279878 18.8678145,35.9020476 17.5473072,35.4900004 C17.3661015,34.0668295 17.2754987,32.6339082 17.276012,31.1999739 C17.276012,20.1784085 22.6164261,10.948881 29.7642551,8.54940902 L29.7713435,8.54345751 Z M22.8038181,41.399471 C22.4336739,40.2969219 22.1271966,39.1744923 21.8850306,38.0383868 C20.481911,37.737139 19.1025055,37.3369949 17.7572531,36.8417532 C17.9481248,37.9701344 18.2003435,39.0880054 18.5130071,40.190048 C19.912518,40.6876956 21.3447645,41.0937913 22.7991784,41.404916 L22.8038181,41.399471 Z" id="path-4"></path>
    </defs>
    <g id="页面-1" stroke="none" stroke-width="1" fill="none" fill-rule="evenodd">
        <g id="guojiadianwanglogo_icon" transform="translate(0.704545, 0.000000)">
            <g id="形状结合">
                <use fill="url(#linearGradient-1)" xlink:href="#path-2"></use>
                <use fill="#2E6C69" xlink:href="#path-2"></use>
            </g>
            <g id="Fill-8">
                <use fill="url(#linearGradient-3)" xlink:href="#path-4"></use>
                <use fill="#2E6C69" xlink:href="#path-4"></use>
            </g>
            <path d="M54.9745256,30.3354853 C54.9740101,36.6316775 52.3988533,42.6638506 47.8281144,47.0765795 C38.2774416,56.3466279 22.919037,56.3599238 13.3512232,47.1072234 C8.78950586,42.6791726 6.22246855,36.6406681 6.22246855,30.3404237 C6.22246855,24.0396729 8.78950586,18.0015483 13.3512232,13.573624 C22.9185215,4.31839113 38.2784727,4.33168706 47.8281144,13.604268 C52.3993688,18.0164904 54.9745256,24.0490434 54.9745256,30.3453622 L54.9745256,30.3354853 Z M54.3597668,30.3354853 C54.3602822,24.2023897 51.8531742,18.3266021 47.402294,14.0266987 C38.0896631,4.99103852 23.1184148,4.97723608 13.7886428,13.9960547 C9.34381992,18.3117867 6.84225379,24.1959317 6.84225379,30.3359918 C6.84225379,36.4759252 9.34381992,42.3601969 13.7886428,46.6759288 C23.1189303,55.6927214 38.088632,55.6787923 47.402294,46.6451583 C51.8526587,42.3448749 54.3592512,36.4684541 54.3597668,30.3354853 Z" id="Fill-9" fill="#2E6C69"></path>
        </g>
    </g>
</svg>